,
Brought to you by  http://www.scenetime.com/signup.php
 
 Hottest scene tracker on the net !!!   
 
No fake torrents from scenebalance 
shame on those who comment fake before downloading my torrents

    seed back for speed


 



...................................NFO:.................................................








































          
          
              
              
                    
                    
                    
                    

Death.Hunter.Werewolves.VS.Vampires.2011.DVDSCR.XVID.AC3-SiC

[img]http://imageshack.us/m/26/2149/5tsyysfl.png[/img]

IMDB Link
http://www.imdb.com/title/tt1736251/


Description:

IN A FORGOTTEN OF THE DESERT, AN UNSPEAKABLE EVIL EXISTS. BY NO CHOICE OF HIS OWN, JOHN COIX WILL COME FACE TO FACE WITH THE MOST TERRIFYING CREATURES OF THE DARK NIGHT. IRONICALLY EQUIPPED WITH THE POWER OF THE WEREWOLVES AND NEWFOUND FAITH IN HIMSELF AND ALL THAT IS HOLY. 


General
Complete name                    : E:\Death.Hunter.Werewolves.VS.Vampires.2011.DVDSCR.XVID.AC3-SiC.avi
Format                           : AVI
Format/Info                      : Audio Video Interleave
File size                        : 1.00 GiB
Duration                         : 1h 33mn
Overall bit rate                 : 1 529 Kbps
Writing application              : VirtualDubMod 1.5.4.1 (build 2178/release)
Writing library                  : VirtualDubMod build 2178/release

Video
ID                               : 0
Format                           : MPEG-4 Visual
Format profile                   : Advanced Simple@L5
Format settings, BVOP            : 1
Format settings, QPel            : No
Format settings, GMC             : No warppoints
Format settings, Matrix          : Custom
Codec ID                         : XVID
Codec ID/Hint                    : XviD
Duration                         : 1h 33mn
Bit rate                         : 1 329 Kbps
Width                            : 672 pixels
Height                           : 384 pixels
Display aspect ratio             : 16:9
Frame rate                       : 29.970 fps
Color space                      : YUV
Chroma subsampling               : 4:2:0
Bit depth                        : 8 bits
Scan type                        : Progressive
Compression mode                 : Lossy
Bits/(Pixel*Frame)               : 0.172
Stream size                      : 891 MiB (87%)
Writing library                  : XviD 63

Audio
ID                               : 1
Format                           : AC-3
Format/Info                      : Audio Coding 3
Mode extension                   : CM (complete main)
Codec ID                         : 2000
Duration                         : 1h 33mn
Bit rate mode                    : Constant
Bit rate                         : 192 Kbps
Channel(s)                       : 2 channels
Channel positions                : Front: L R
Sampling rate                    : 48.0 KHz
Bit depth                        : 16 bits
Compression mode                 : Lossy
Stream size                      : 129 MiB (13%)
Alignment                        : Split accross interleaves
Interleave, duration             : 96 ms (2.88 video frames)
Interleave, preload duration     : 96 ms
Language                         : English


Screenshots
[img]http://leetleech.org/images/28938082566099880589.png[/img]
[img]http://leetleech.org/images/29004452133089062137.png[/img]
[img]http://leetleech.org/images/35107269569898105819.png[/img]
[img]http://leetleech.org/images/30092714458517462676.png[/img]
[img]http://leetleech.org/images/30564757791244739546.png[/img]


Note:
Special thanks to our friend.


Encoder: thefuzz

  
Enjoy!

Respects to CaptainHomey, Cyanide, CM8, Rx, Pirate666, THC, ELEKTRI4KA, Killerhz and XtremE